<svg xmlns="http://www.w3.org/2000/svg" width="250" height="38.29"><path fill="#414344" d="M237.358 16.817v5.212h3.662V27.2a6.5 6.5 0 01-.094 1.359c-.148.965-1.06 2.61-3.662 2.61-2.582 0-3.486-1.645-3.64-2.61a8.984 8.984 0 01-.092-1.359V10.864a7.2 7.2 0 01.159-1.686 3.28 3.28 0 013.555-2.587c2.734 0 3.416 1.811 3.571 2.587a9.052 9.052 0 01.109 1.38v1.98h9v-1.169A22.267 22.267 0 00249.859 9c-.674-6.7-6.2-8.826-12.536-8.826S225.566 2.319 224.778 9c-.07.609-.182 1.709-.182 2.366v15.029a20.4 20.4 0 00.144 2.358c.587 6.518 6.237 8.829 12.558 8.829 6.361 0 11.973-2.311 12.568-8.829.109-1.2.117-1.706.134-2.358v-9.578zm-62.06-15.68h-9.041v26.441a6.015 6.015 0 01-.08 1.356 3.551 3.551 0 01-6.841 0 5.746 5.746 0 01-.092-1.356V1.137h-9.035V26.76c-.01.657.04 2.008.08 2.361.624 6.674 5.886 8.843 12.453 8.843 6.586 0 11.845-2.169 12.479-8.843a19.029 19.029 0 00.077-2.361zm-83.051 0l-4.51 27.939-4.5-27.939H68.649l-.771 35.741h8.93l.244-33.083 6.146 33.083h9.063l6.151-33.083.241 33.083h8.956l-.8-35.741zm-53.983 0l-6.62 35.741h9.654l4.987-33.083 4.868 33.083h9.591L54.148 1.137zm168.62 28.775l-8.416-28.775h-13.264V36.5h8.774l-.51-29.7 9.04 29.7h12.72V1.137h-8.83zm-81.155-19.473a4.816 4.816 0 01-.03-1.848 2.93 2.93 0 013.238-2.391 3.015 3.015 0 013.274 3.216V11.6h8.813V9.113c0-7.7-6.906-8.911-11.9-8.911-6.294 0-11.439 2.078-12.377 7.872a11.867 11.867 0 00.087 4.761c1.528 7.224 14.108 9.324 15.931 13.888a4.823 4.823 0 01.067 2.622c-.276 1.189-1.072 2.383-3.445 2.383-2.224 0-3.562-1.276-3.562-3.2v-3.434h-9.487v2.73c0 7.9 6.187 10.284 12.853 10.284 6.384 0 11.652-2.18 12.5-8.1a17.393 17.393 0 00-.059-5.793c-1.481-7.411-14.886-9.64-15.9-13.777M9.498 10.352a4.513 4.513 0 01-.04-1.876 2.954 2.954 0 013.276-2.408 3.051 3.051 0 013.319 3.244v2.215h8.913V9.013C24.969 1.239 17.96 0 12.909 0 6.559 0 1.373 2.108.423 7.944a12.4 12.4 0 00.07 4.818c1.549 7.3 14.252 9.419 16.1 14.043a4.584 4.584 0 01.072 2.636c-.293 1.2-1.1 2.415-3.49 2.415-2.234 0-3.57-1.3-3.57-3.253l-.013-3.438H-.002V27.9c0 7.988 6.278 10.39 13 10.39 6.453 0 11.757-2.2 12.622-8.18a17.744 17.744 0 00-.037-5.85c-1.508-7.5-15.063-9.722-16.08-13.909"/></svg>