<svg xmlns="http://www.w3.org/2000/svg" viewBox="0 0 64 64"><defs><style>.cls-1{fill:#999}.cls-1,.cls-3{stroke:#54596e;stroke-linecap:round;stroke-linejoin:round;stroke-width:2px}.cls-4{fill:#54596e}.cls-3{fill:none}</style></defs><g id="bomb"><path class="cls-1" transform="rotate(45 45.13 18.373)" d="M38.13 15.37h14v6h-14z"/><circle class="cls-1" cx="29" cy="34" r="23" transform="rotate(-45 28.993 34)"/><path d="M16.74 46.26a23 23 0 01-1.86-30.39 23 23 0 1032.25 32.26 23 23 0 01-30.39-1.87z" opacity=".2" fill="#54596e"/><path class="cls-3" d="M47.25 16.25a7.91 7.91 0 013.54-6.36c3.54-2.12 5.66-1.41 5.66-1.41"/><circle class="cls-4" cx="17.5" cy="31.5" r="1.5"/><circle class="cls-4" cx="38.5" cy="31.5" r="1.5"/><path class="cls-3" d="M22 43l2-3 2 3 2-3 2 3 2-3 2 3M16 29l4 1m20-1l-4 1"/></g></svg>