<svg width="64" height="64" fill="none" xmlns="http://www.w3.org/2000/svg"><path d="M54 47.94a26.52 26.52 0 01-15.31-3.35A26.78 26.78 0 0128.47 8.16a27.844 27.844 0 012.23-3.35 1.27 1.27 0 00.11-1.36 1.25 1.25 0 00-1.21-.65A29.23 29.23 0 1055.06 50a1.27 1.27 0 00.12-1.37 1.28 1.28 0 00-1.18-.69z" fill="#000"/><path d="M59.19 15.29a1.26 1.26 0 00-1-.85L51 13.4l-3.21-6.5a1.25 1.25 0 00-2.24 0l-3.21 6.5-7.18 1a1.26 1.26 0 00-1 .85 1.28 1.28 0 00.32 1.29l5.19 5.06-1.22 7.15a1.241 1.241 0 001.23 1.46 1.3 1.3 0 00.58-.14l6.42-3.38 6.42 3.38a1.26 1.26 0 001.742-.639 1.23 1.23 0 00.068-.681l-1.22-7.15 5.19-5.06a1.26 1.26 0 00.31-1.25z" fill="#000"/></svg>