<svg xmlns="http://www.w3.org/2000/svg" width="300" height="300" viewBox="0 0 400 400"><path d="M99.421 99.41L2.344 196.476v3.238c0 2.023.56 3.93 1.492 5.082l1.493 1.845 24.679.226 24.68.227-.001 93.364v93.363l1.918 1.918 1.918 1.917h98.579l1.918-1.917 1.917-1.918.001-67.223v-67.223h78.125v134.446l1.917 1.918 1.918 1.917h99.176l1.619-2.058c1.618-2.057 1.62-2.153 1.62-95.313v-93.254h48.508l1.918-1.917c1.441-1.442 1.917-2.752 1.917-5.278v-3.36L300.579 99.41 203.501 2.344h-7.002L99.421 99.41m187.582 6.645l86.333 86.132-8.029.001c-20.962 0-29.571.862-31.904 3.195l-2.153 2.153v186.839h-78.125V249.929l-1.918-1.918-1.917-1.917h-98.58l-1.917 1.917-1.918 1.918v134.446H68.75V197.536l-2.284-2.284-2.283-2.283H26.175l86.716-86.719c47.694-47.696 86.955-86.631 87.247-86.524.292.108 39.381 38.956 86.865 86.329" stroke="#000" stroke-width="3" fill-rule="evenodd"/></svg>