<svg xmlns="http://www.w3.org/2000/svg" width="300" height="300" viewBox="0 -40 425 425"><path d="M184.793 10.972C67.84 19.834-2.505 140.975 48.92 244.959c53.847 108.881 202.603 122.377 275.785 25.02 5.34-7.104 5.212-6.656 2.072-7.238-1.364-.253-4.088-1.01-6.054-1.683-4.948-1.694-4.683-1.807-9.127 3.901-72.719 93.398-221.741 67.216-258.72-45.455C11.672 93.959 144.602-19.466 262.348 40.77c16.235 8.306 46.412 32.601 46.412 37.366 0 .298-10.562.542-23.471.542h-23.471v13.223h68.099V24.463h-13.884l.007 20.33.006 20.331-7.775-7.608C275.6 25.55 228.2 7.683 184.793 10.972" stroke="#000" stroke-width="4" fill-rule="evenodd"/></svg>