<svg xmlns="http://www.w3.org/2000/svg" width="300" height="300" viewBox="0 0 360 360"><path d="M58.843 179.174v150.743h280.992V94.21L306.94 61.32l-32.895-32.89H58.843v150.744M126.841 40.76l6.052.43v54.678h111.735v-54.68l5.455-.425c3-.233 8.428-.426 12.063-.428l6.609-.004 28.598 28.592 28.597 28.592v217.857H72.066V40.331h24.361c13.399 0 27.085.193 30.414.429m103.903 20.728v21.157h-84.628V40.331h84.628v21.157M119.669 209.256v57.19h156.033v-114.38H119.669v57.19m142.81.331v42.314H135.537v-84.628h126.942v42.314" stroke="#000" fill-rule="evenodd"/></svg>