<svg width="100" height="100" viewBox="0 0 512 512" fill="none" xmlns="http://www.w3.org/2000/svg"><path fill-rule="evenodd" clip-rule="evenodd" d="M135.934 93.297c5.911 6.568 5.379 16.684-1.189 22.596L85.737 160H352c70.692 0 128 57.308 128 128 0 70.693-57.308 128-128 128H144c-8.837 0-16-7.163-16-16 0-8.836 7.163-16 16-16h208c53.019 0 96-42.981 96-96s-42.981-96-96-96H85.737l49.008 44.107c6.568 5.912 7.1 16.028 1.189 22.597-5.911 6.568-16.028 7.1-22.596 1.189l-73.393-66.054c-10.593-9.534-10.593-26.144 0-35.678l2.535 2.817-2.535-2.817 73.393-66.054c6.568-5.91 16.685-5.379 22.596 1.19z" fill="#000"/></svg>